<svg width="20" height="20" viewBox="0 0 20 20" fill="none" xmlns="http://www.w3.org/2000/svg">
<path fill-rule="evenodd" clip-rule="evenodd" d="M18.9951 8.83008C19.7935 8.83034 20.2699 9.72033 19.8271 10.3848L17.0312 14.5781L16.959 14.7061C16.8963 14.839 16.8633 14.9846 16.8633 15.1328V18.5762L16.8496 18.7402C16.7871 19.1161 16.5133 19.4298 16.1377 19.5371L14.6377 19.9658C13.999 20.1481 13.3633 19.6682 13.3633 19.0039V15.1328C13.3633 14.9354 13.3048 14.7424 13.1953 14.5781L10.3994 10.3848C9.95667 9.72034 10.4331 8.83038 11.2314 8.83008H18.9951ZM14.0273 14.0234C14.2464 14.352 14.3633 14.738 14.3633 15.1328V19.0039L15.8633 18.5762V15.1328C15.8633 14.738 15.9802 14.352 16.1992 14.0234L18.9951 9.83008H11.2314L14.0273 14.0234Z" fill="white"/>
<path fill-rule="evenodd" clip-rule="evenodd" d="M10.5 0C10.7761 0 11 0.223858 11 0.5V1H15C15.5523 1 16 1.44772 16 2V8H15V5H1V15H12.2197L12.3408 15.2012C12.464 15.4069 12.5293 15.6493 12.5293 15.8965V16H1C0.447715 16 0 15.5523 0 15V2C0 1.44772 0.447715 1 1 1H5V0.5C5 0.223858 5.22386 0 5.5 0C5.77614 0 6 0.223858 6 0.5V1H10V0.5C10 0.223858 10.2239 0 10.5 0ZM1 4H15V2H11V2.5C11 2.77614 10.7761 3 10.5 3C10.2239 3 10 2.77614 10 2.5V2H6V2.5C6 2.77614 5.77614 3 5.5 3C5.22386 3 5 2.77614 5 2.5V2H1V4Z" fill="white"/>
<path d="M10.4219 12H4.5C4.22386 12 4 11.7761 4 11.5C4 11.2239 4.22386 11 4.5 11H9.82227L10.4219 12Z" fill="white"/>
<path d="M11.5 7C11.7761 7 12 7.22386 12 7.5C12 7.77614 11.7761 8 11.5 8H4.5C4.22386 8 4 7.77614 4 7.5C4 7.22386 4.22386 7 4.5 7H11.5Z" fill="white"/>
</svg>
