<svg width="68" height="68" viewBox="0 0 68 68" fill="none" xmlns="http://www.w3.org/2000/svg">
<path d="M63 16C63.5523 16 64 16.4477 64 17V63C64 63.5523 63.5523 64 63 64H5C4.44772 64 4 63.5523 4 63V17C4 16.4477 4.44772 16 5 16H63Z" fill="#282828"/>
<rect x="7" y="26" width="5" height="2" rx="1" fill="#525252"/>
<rect x="15" y="26" width="5" height="2" rx="1" fill="#525252"/>
<rect x="23" y="26" width="5" height="2" rx="1" fill="#525252"/>
<rect x="31" y="26" width="5" height="2" rx="1" fill="#525252"/>
<rect x="39" y="26" width="5" height="2" rx="1" fill="#525252"/>
<rect x="47" y="26" width="5" height="2" rx="1" fill="#525252"/>
<rect x="55" y="26" width="5" height="2" rx="1" fill="#525252"/>
<rect x="7" y="20" width="9" height="2" rx="1" fill="#6A6A6A"/>
<rect x="29" y="19" width="10" height="4" rx="2" fill="#6A6A6A"/>
<rect x="54" y="20" width="2" height="2" rx="1" fill="#6A6A6A"/>
<rect x="57" y="20" width="2" height="2" rx="1" fill="#6A6A6A"/>
<rect x="4" y="4" width="60" height="10" rx="2" fill="#282828"/>
<rect x="13" y="8" width="16" height="2" rx="1" fill="#6A6A6A"/>
<rect x="7" y="7" width="4" height="4" rx="2" fill="#6A6A6A"/>
<rect x="7" y="32" width="5" height="4" rx="1" fill="#363636"/>
<rect x="15" y="32" width="5" height="4" rx="1" fill="#363636"/>
<rect x="23" y="32" width="5" height="4" rx="1" fill="#6A6A6A"/>
<rect x="31" y="32" width="5" height="4" rx="1" fill="#6A6A6A"/>
<rect x="39" y="32" width="5" height="4" rx="1" fill="#6A6A6A"/>
<rect x="47" y="32" width="5" height="4" rx="1" fill="#6A6A6A"/>
<rect x="55" y="32" width="5" height="4" rx="1" fill="#6A6A6A"/>
<rect x="7" y="38" width="5" height="4" rx="1" fill="#6A6A6A"/>
<rect x="15" y="38" width="5" height="4" rx="1" fill="#6A6A6A"/>
<rect x="23" y="38" width="5" height="4" rx="1" fill="#6A6A6A"/>
<rect x="31" y="38" width="5" height="4" rx="1" fill="#6A6A6A"/>
<rect x="39" y="38" width="5" height="4" rx="1" fill="#6A6A6A"/>
<rect x="47" y="38" width="5" height="4" rx="1" fill="#6A6A6A"/>
<rect x="55" y="38" width="5" height="4" rx="1" fill="#6A6A6A"/>
<rect x="7" y="44" width="5" height="4" rx="1" fill="#6A6A6A"/>
<rect x="15" y="44" width="5" height="4" rx="1" fill="#6A6A6A"/>
<rect x="23" y="44" width="5" height="4" rx="1" fill="#6A6A6A"/>
<rect x="31" y="44" width="5" height="4" rx="1" fill="#6A6A6A"/>
<rect x="39" y="44" width="5" height="4" rx="1" fill="#6A6A6A"/>
<rect x="47" y="44" width="5" height="4" rx="1" fill="#6A6A6A"/>
<rect x="55" y="44" width="5" height="4" rx="1" fill="#6A6A6A"/>
<rect x="7" y="50" width="5" height="4" rx="1" fill="#6A6A6A"/>
<rect x="15" y="50" width="5" height="4" rx="1" fill="#6A6A6A"/>
<rect x="23" y="50" width="5" height="4" rx="1" fill="#6A6A6A"/>
<rect x="31" y="50" width="5" height="4" rx="1" fill="#6A6A6A"/>
<rect x="39" y="50" width="5" height="4" rx="1" fill="#6A6A6A"/>
<rect x="47" y="50" width="5" height="4" rx="1" fill="#6A6A6A"/>
<rect x="55" y="50" width="5" height="4" rx="1" fill="#6A6A6A"/>
<rect x="7" y="56" width="5" height="4" rx="1" fill="#6A6A6A"/>
<rect x="15" y="56" width="5" height="4" rx="1" fill="#6A6A6A"/>
<rect x="23" y="56" width="5" height="4" rx="1" fill="#6A6A6A"/>
<rect x="31" y="56" width="5" height="4" rx="1" fill="#6A6A6A"/>
<rect x="39" y="56" width="5" height="4" rx="1" fill="#363636"/>
<rect x="47" y="56" width="5" height="4" rx="1" fill="#363636"/>
<rect x="55" y="56" width="5" height="4" rx="1" fill="#363636"/>
</svg>
