<svg width="68" height="68" viewBox="0 0 68 68" fill="none" xmlns="http://www.w3.org/2000/svg">
<rect x="4" y="4" width="60" height="60" rx="1" fill="#282828"/>
<rect x="7" y="16" width="5" height="2" rx="1" fill="#525252"/>
<rect x="15" y="16" width="5" height="2" rx="1" fill="#525252"/>
<rect x="23" y="16" width="5" height="2" rx="1" fill="#525252"/>
<rect x="31" y="16" width="5" height="2" rx="1" fill="#525252"/>
<rect x="39" y="16" width="5" height="2" rx="1" fill="#525252"/>
<rect x="47" y="16" width="5" height="2" rx="1" fill="#525252"/>
<rect x="55" y="16" width="5" height="2" rx="1" fill="#525252"/>
<rect x="7" y="9" width="9" height="2" rx="1" fill="#6A6A6A"/>
<rect x="29" y="8" width="10" height="4" rx="2" fill="#6A6A6A"/>
<rect x="54" y="9" width="2" height="2" rx="1" fill="#6A6A6A"/>
<rect x="57" y="9" width="2" height="2" rx="1" fill="#6A6A6A"/>
<rect x="7" y="23" width="5" height="4" rx="1" fill="#363636"/>
<rect x="15" y="23" width="5" height="4" rx="1" fill="#363636"/>
<rect x="23" y="23" width="5" height="4" rx="1" fill="#6A6A6A"/>
<rect x="31" y="23" width="5" height="4" rx="1" fill="#6A6A6A"/>
<rect x="39" y="23" width="5" height="4" rx="1" fill="#6A6A6A"/>
<rect x="47" y="23" width="5" height="4" rx="1" fill="#6A6A6A"/>
<rect x="55" y="23" width="5" height="4" rx="1" fill="#6A6A6A"/>
<rect x="7" y="29" width="5" height="4" rx="1" fill="#6A6A6A"/>
<rect x="15" y="29" width="5" height="4" rx="1" fill="#6A6A6A"/>
<rect x="23" y="29" width="5" height="4" rx="1" fill="#6A6A6A"/>
<rect x="31" y="29" width="5" height="4" rx="1" fill="#6A6A6A"/>
<rect x="39" y="29" width="5" height="4" rx="1" fill="#6A6A6A"/>
<rect x="47" y="29" width="5" height="4" rx="1" fill="#6A6A6A"/>
<rect x="55" y="29" width="5" height="4" rx="1" fill="#6A6A6A"/>
<rect x="7" y="35" width="5" height="4" rx="1" fill="#6A6A6A"/>
<rect x="15" y="35" width="5" height="4" rx="1" fill="#6A6A6A"/>
<rect x="23" y="35" width="5" height="4" rx="1" fill="#6A6A6A"/>
<rect x="31" y="35" width="5" height="4" rx="1" fill="#6A6A6A"/>
<rect x="39" y="35" width="5" height="4" rx="1" fill="#6A6A6A"/>
<rect x="47" y="35" width="5" height="4" rx="1" fill="#6A6A6A"/>
<rect x="55" y="35" width="5" height="4" rx="1" fill="#6A6A6A"/>
<rect x="7" y="41" width="5" height="4" rx="1" fill="#6A6A6A"/>
<rect x="15" y="41" width="5" height="4" rx="1" fill="#6A6A6A"/>
<rect x="23" y="41" width="5" height="4" rx="1" fill="#6A6A6A"/>
<rect x="31" y="41" width="5" height="4" rx="1" fill="#6A6A6A"/>
<rect x="39" y="41" width="5" height="4" rx="1" fill="#6A6A6A"/>
<rect x="47" y="41" width="5" height="4" rx="1" fill="#6A6A6A"/>
<rect x="55" y="41" width="5" height="4" rx="1" fill="#6A6A6A"/>
<rect x="7" y="47" width="5" height="4" rx="1" fill="#6A6A6A"/>
<rect x="15" y="47" width="5" height="4" rx="1" fill="#6A6A6A"/>
<rect x="23" y="47" width="5" height="4" rx="1" fill="#6A6A6A"/>
<rect x="31" y="47" width="5" height="4" rx="1" fill="#6A6A6A"/>
<rect x="39" y="47" width="5" height="4" rx="1" fill="#363636"/>
<rect x="47" y="47" width="5" height="4" rx="1" fill="#363636"/>
<rect x="55" y="47" width="5" height="4" rx="1" fill="#363636"/>
<rect x="39" y="56" width="10" height="4" rx="2" fill="#525252"/>
<rect x="7" y="56" width="10" height="4" rx="2" fill="#525252"/>
<rect x="50" y="56" width="10" height="4" rx="2" fill="#525252"/>
</svg>
